<?xml version="1.0" standalone="no"?>
<!DOCTYPE svg PUBLIC "-//W3C//DTD SVG 20010904//EN"
 "http://www.w3.org/TR/2001/REC-SVG-20010904/DTD/svg10.dtd">
<svg version="1.0" xmlns="http://www.w3.org/2000/svg"
 width="700.000000pt" height="700.000000pt" viewBox="0 0 700.000000 700.000000"
 preserveAspectRatio="xMidYMid meet">
<metadata>
Created by potrace 1.14, written by Peter Selinger 2001-2017
</metadata>
<g transform="translate(0.000000,700.000000) scale(0.100000,-0.100000)"
fill="#000000" stroke="none">
<path d="M3375 6986 c-28 -8 -613 -166 -1300 -351 -873 -236 -1268 -346 -1310
-367 -122 -62 -238 -211 -265 -341 -7 -37 -10 -504 -8 -1562 l3 -1510 38 -140
c170 -629 626 -1237 1350 -1798 384 -298 860 -598 1300 -818 155 -78 222 -99
317 -99 99 0 165 22 348 114 809 410 1572 979 2014 1504 309 366 502 716 606
1101 l37 136 3 1510 c2 1058 -1 1525 -8 1562 -27 130 -136 272 -257 336 -44
23 -140 55 -273 91 -113 30 -691 186 -1285 347 -972 263 -1089 292 -1170 295
-57 3 -108 -1 -140 -10z m941 -782 c1305 -352 1612 -434 1618 -434 3 0 6 -621
6 -1379 0 -1519 3 -1434 -64 -1634 -238 -714 -1019 -1454 -2196 -2083 l-180
-96 -172 92 c-454 244 -865 513 -1197 783 -515 420 -851 853 -1005 1295 -69
200 -66 116 -66 1641 l0 1377 1208 326 c664 180 1217 327 1228 327 12 1 381
-96 820 -215z"/>
<path d="M3500 3525 c0 -1389 3 -2525 7 -2525 12 0 324 171 453 248 844 505
1371 1037 1559 1574 63 183 61 131 59 1463 l-3 1209 -1030 278 c-566 152
-1033 277 -1037 278 -5 0 -8 -1136 -8 -2525z"/>
</g>
</svg>
